<svg xmlns="http://www.w3.org/2000/svg" width="35.029" height="64.76" viewBox="0 0 35.029 64.76">
  <path id="_2l3329tm70gfedp2O1gQlk2DqZ4" data-name="2l3329tm70gfedp2O1gQlk2DqZ4" d="M-592.606,0h9.33l.514.119.356.237.237.316.158.435.04.474v9.093l-.04.712-.119.4-.237.356-.2.158-.435.158-.751.079-3.875.04-1.779.04-1.067.04-.712.079-.474.119-.435.2-.435.277-.277.277-.316.514-.2.514-.119.554-.04.356-.04,1.621-.039,6.128h9.924l.474.119.316.2.237.277.158.4.04.2V35.345l-.119.474-.237.356-.2.158-.435.158-.237.04-.712.04h-9.212V63.1l-.079.672-.277.553-.316.237-.356.119-.554.079h-10.714l-.474-.079-.4-.2-.316-.356-.158-.474-.04-.316V36.571H-615.1l-.712-.04-.474-.119-.316-.237-.237-.316-.119-.356-.04-.277V24.591l.079-.4.237-.474.356-.277.474-.158h8.619V15.261l.079-1.265.158-1.3.277-1.423.356-1.265.356-.988.474-1.067.435-.83.435-.712.553-.791.435-.554.435-.474.277-.316.4-.4.316-.277.514-.435.751-.554.83-.514.87-.474.791-.356.83-.316.83-.277,1.265-.316,1.463-.237.83-.079Z" transform="translate(617)" fill="#3f6dd8"/>
</svg>
